<mxfile>
    <diagram id="ZcramlJeOeUHpQ0AZHul" name="Page-1">
        <mxGraphModel dx="565" dy="353" grid="1" gridSize="10" guides="1" tooltips="1" connect="1" arrows="1" fold="1" page="1" pageScale="1" pageWidth="827" pageHeight="1169" math="0" shadow="0">
            <root>
                <mxCell id="0"/>
                <mxCell id="1" parent="0"/>
                <mxCell id="24" style="edgeStyle=orthogonalEdgeStyle;rounded=0;orthogonalLoop=1;jettySize=auto;html=1;exitX=0.935;exitY=0.496;exitDx=0;exitDy=0;entryX=0.009;entryY=0.3;entryDx=0;entryDy=0;entryPerimeter=0;endArrow=diamond;endFill=0;startArrow=diamond;startFill=0;exitPerimeter=0;strokeColor=#415564;" parent="1" source="16" target="17" edge="1">
                    <mxGeometry relative="1" as="geometry"/>
                </mxCell>
                <mxCell id="16" value="&lt;table border=&quot;1&quot; width=&quot;100%&quot; cellpadding=&quot;4&quot; style=&quot;width: 100% ; height: 100% ; border-collapse: collapse&quot;&gt;&lt;tbody&gt;&lt;tr&gt;&lt;th align=&quot;center&quot;&gt;&lt;b&gt;&lt;font face=&quot;Fira Sans&quot; data-font-src=&quot;https://fonts.googleapis.com/css?family=Fira+Sans&quot; color=&quot;#415564&quot;&gt;Parties&lt;/font&gt;&lt;/b&gt;&lt;/th&gt;&lt;/tr&gt;&lt;tr&gt;&lt;td align=&quot;center&quot;&gt;&lt;font face=&quot;Fira Sans&quot; color=&quot;#415564&quot; data-font-src=&quot;https://fonts.googleapis.com/css?family=Fira+Sans&quot;&gt;party id&lt;/font&gt;&lt;/td&gt;&lt;/tr&gt;&lt;tr&gt;&lt;td style=&quot;text-align: center&quot;&gt;&lt;b&gt;&lt;font color=&quot;#415564&quot; face=&quot;Fira Sans&quot; data-font-src=&quot;https://fonts.googleapis.com/css?family=Fira+Sans&quot;&gt;DATA&lt;/font&gt;&lt;/b&gt;&lt;/td&gt;&lt;/tr&gt;&lt;/tbody&gt;&lt;/table&gt;" style="text;html=1;overflow=fill;rounded=0;glass=0;arcSize=16;fillColor=none;perimeterSpacing=8;strokeColor=#415564;" parent="1" vertex="1">
                    <mxGeometry x="120" y="60" width="110" height="140" as="geometry"/>
                </mxCell>
                <mxCell id="27" style="edgeStyle=orthogonalEdgeStyle;rounded=0;orthogonalLoop=1;jettySize=auto;html=1;exitX=1;exitY=0.5;exitDx=0;exitDy=0;entryX=1;entryY=0.5;entryDx=0;entryDy=0;startArrow=diamond;startFill=0;endArrow=diamond;endFill=0;strokeColor=#415564;" parent="1" source="17" target="18" edge="1">
                    <mxGeometry relative="1" as="geometry">
                        <Array as="points">
                            <mxPoint x="490" y="90"/>
                            <mxPoint x="490" y="250"/>
                        </Array>
                    </mxGeometry>
                </mxCell>
                <mxCell id="28" style="edgeStyle=orthogonalEdgeStyle;rounded=0;orthogonalLoop=1;jettySize=auto;html=1;exitX=1;exitY=0.75;exitDx=0;exitDy=0;startArrow=diamond;startFill=0;endArrow=diamond;endFill=0;entryX=0.991;entryY=0.671;entryDx=0;entryDy=0;entryPerimeter=0;strokeColor=#415564;" parent="1" source="17" target="18" edge="1">
                    <mxGeometry relative="1" as="geometry">
                        <mxPoint x="460" y="280" as="targetPoint"/>
                    </mxGeometry>
                </mxCell>
                <mxCell id="17" value="&lt;table border=&quot;1&quot; width=&quot;100%&quot; cellpadding=&quot;4&quot; style=&quot;width: 100% ; height: 100% ; border-collapse: collapse&quot;&gt;&lt;tbody&gt;&lt;tr&gt;&lt;th align=&quot;center&quot;&gt;&lt;b&gt;&lt;font face=&quot;Fira Sans&quot; data-font-src=&quot;https://fonts.googleapis.com/css?family=Fira+Sans&quot; color=&quot;#415564&quot;&gt;Elections&lt;/font&gt;&lt;/b&gt;&lt;/th&gt;&lt;/tr&gt;&lt;tr&gt;&lt;td align=&quot;center&quot;&gt;&lt;font face=&quot;Fira Sans&quot; color=&quot;#415564&quot; data-font-src=&quot;https://fonts.googleapis.com/css?family=Fira+Sans&quot;&gt;party id&lt;br&gt;&lt;/font&gt;&lt;/td&gt;&lt;/tr&gt;&lt;tr&gt;&lt;td style=&quot;text-align: center&quot;&gt;&lt;font color=&quot;#415564&quot; face=&quot;Fira Sans&quot; data-font-src=&quot;https://fonts.googleapis.com/css?family=Fira+Sans&quot;&gt;election id&lt;/font&gt;&lt;/td&gt;&lt;/tr&gt;&lt;tr&gt;&lt;td style=&quot;text-align: center&quot;&gt;&lt;font color=&quot;#415564&quot; face=&quot;Fira Sans&quot; data-font-src=&quot;https://fonts.googleapis.com/css?family=Fira+Sans&quot;&gt;cabinet id&lt;/font&gt;&lt;/td&gt;&lt;/tr&gt;&lt;tr&gt;&lt;td style=&quot;text-align: center&quot;&gt;&lt;b&gt;&lt;font color=&quot;#415564&quot; face=&quot;Fira Sans&quot; data-font-src=&quot;https://fonts.googleapis.com/css?family=Fira+Sans&quot;&gt;DATA&lt;/font&gt;&lt;/b&gt;&lt;/td&gt;&lt;/tr&gt;&lt;/tbody&gt;&lt;/table&gt;" style="text;html=1;overflow=fill;rounded=0;glass=0;arcSize=16;fillColor=none;strokeColor=#415564;" parent="1" vertex="1">
                    <mxGeometry x="330" y="20" width="110" height="140" as="geometry"/>
                </mxCell>
                <mxCell id="18" value="&lt;table border=&quot;1&quot; width=&quot;100%&quot; cellpadding=&quot;4&quot; style=&quot;width: 100% ; height: 100% ; border-collapse: collapse&quot;&gt;&lt;tbody&gt;&lt;tr&gt;&lt;th align=&quot;center&quot;&gt;&lt;b&gt;&lt;font face=&quot;Fira Sans&quot; data-font-src=&quot;https://fonts.googleapis.com/css?family=Fira+Sans&quot; color=&quot;#415564&quot;&gt;Cabinets&lt;/font&gt;&lt;/b&gt;&lt;/th&gt;&lt;/tr&gt;&lt;tr&gt;&lt;td align=&quot;center&quot;&gt;&lt;font face=&quot;Fira Sans&quot; color=&quot;#415564&quot; data-font-src=&quot;https://fonts.googleapis.com/css?family=Fira+Sans&quot;&gt;party id&lt;br&gt;&lt;/font&gt;&lt;/td&gt;&lt;/tr&gt;&lt;tr&gt;&lt;td style=&quot;text-align: center&quot;&gt;&lt;font color=&quot;#415564&quot; face=&quot;Fira Sans&quot; data-font-src=&quot;https://fonts.googleapis.com/css?family=Fira+Sans&quot;&gt;election id&lt;/font&gt;&lt;/td&gt;&lt;/tr&gt;&lt;tr&gt;&lt;td style=&quot;text-align: center&quot;&gt;&lt;font color=&quot;#415564&quot; face=&quot;Fira Sans&quot; data-font-src=&quot;https://fonts.googleapis.com/css?family=Fira+Sans&quot;&gt;cabinet id&lt;/font&gt;&lt;/td&gt;&lt;/tr&gt;&lt;tr&gt;&lt;td style=&quot;text-align: center&quot;&gt;&lt;b&gt;&lt;font color=&quot;#415564&quot; face=&quot;Fira Sans&quot; data-font-src=&quot;https://fonts.googleapis.com/css?family=Fira+Sans&quot;&gt;DATA&lt;/font&gt;&lt;/b&gt;&lt;/td&gt;&lt;/tr&gt;&lt;/tbody&gt;&lt;/table&gt;" style="text;html=1;overflow=fill;rounded=0;glass=0;arcSize=16;fillColor=none;strokeColor=#415564;" parent="1" vertex="1">
                    <mxGeometry x="330" y="180" width="110" height="140" as="geometry"/>
                </mxCell>
                <mxCell id="43" value="" style="endArrow=none;startArrow=diamond;html=1;edgeStyle=orthogonalEdgeStyle;rounded=0;startFill=0;endFill=0;strokeColor=#415564;" parent="1" edge="1">
                    <mxGeometry width="50" height="50" relative="1" as="geometry">
                        <mxPoint x="330" y="220" as="sourcePoint"/>
                        <mxPoint x="280" y="130" as="targetPoint"/>
                        <Array as="points">
                            <mxPoint x="280" y="220"/>
                            <mxPoint x="280" y="120"/>
                        </Array>
                    </mxGeometry>
                </mxCell>
            </root>
        </mxGraphModel>
    </diagram>
</mxfile>